{
	"asset":{
		"generator":"Khronos glTF Blender I/O v4.1.63",
		"version":"2.0"
	},
	"extensionsUsed":[
		"KHR_materials_unlit"
	],
	"scene":0,
	"scenes":[
		{
			"name":"Scene",
			"nodes":[
				0,
				1,
				2,
				3
			]
		}
	],
	"nodes":[
		{
			"mesh":0,
			"name":"Circle",
			"rotation":[
				0.70710688829422,
				0,
				0,
				0.7071066498756409
			],
			"scale":[
				1.0011731386184692,
				1,
				1
			],
			"translation":[
				0.0031795501708984375,
				0,
				-0.23178517818450928
			]
		},
		{
			"mesh":1,
			"name":"Cube",
			"rotation":[
				0,
				0,
				-1,
				0
			],
			"scale":[
				-9.978489875793457,
				-6.209932804107666,
				-0.1487564891576767
			]
		},
		{
			"mesh":2,
			"name":"Plane",
			"rotation":[
				-0.5,
				-0.4999999701976776,
				0.5,
				0.5000001192092896
			],
			"scale":[
				-2.8088572025299072,
				-2.8088572025299072,
				-2.8088572025299072
			],
			"translation":[
				0,
				0,
				0.18257947266101837
			]
		},
		{
			"mesh":3,
			"name":"Text",
			"rotation":[
				0.7071068286895752,
				0,
				0,
				0.7071068286895752
			],
			"scale":[
				2.34580135345459,
				2.34580135345459,
				2.34580135345459
			],
			"translation":[
				-3.8091578483581543,
				3.7059555053710938,
				0.16018417477607727
			]
		}
	],
	"materials":[
		{
			"doubleSided":true,
			"name":"Matte Metallic Paint.001",
			"pbrMetallicRoughness":{}
		},
		{
			"doubleSided":true,
			"name":"GOLD meterial",
			"pbrMetallicRoughness":{
				"baseColorFactor":[
					1,
					0.585842490196228,
					0.07388567179441452,
					1
				],
				"roughnessFactor":0.20000000298023224
			}
		},
		{
			"doubleSided":true,
			"name":"Material.005",
			"pbrMetallicRoughness":{
				"baseColorFactor":[
					0.06899992376565933,
					0.06899992376565933,
					0.0689999982714653,
					1
				],
				"roughnessFactor":0.3799999952316284
			}
		},
		{
			"doubleSided":true,
			"name":"Rough white metal",
			"normalTexture":{
				"index":0,
				"texCoord":1
			},
			"pbrMetallicRoughness":{
				"baseColorTexture":{
					"index":1,
					"texCoord":1
				},
				"metallicRoughnessTexture":{
					"index":2,
					"texCoord":1
				}
			}
		},
		{
			"doubleSided":true,
			"name":"Material.003",
			"pbrMetallicRoughness":{
				"baseColorFactor":[
					0.003195298369973898,
					0.003195298369973898,
					0.003195298369973898,
					1
				],
				"roughnessFactor":0.3799999952316284
			}
		},
		{
			"doubleSided":true,
			"name":"GOLD meterial.002",
			"pbrMetallicRoughness":{
				"baseColorFactor":[
					1,
					0.585842490196228,
					0.07388567179441452,
					1
				],
				"roughnessFactor":0.20000000298023224
			}
		},
		{
			"doubleSided":true,
			"name":"GOLD meterial.003",
			"pbrMetallicRoughness":{
				"baseColorFactor":[
					1,
					0.585842490196228,
					0.07388567179441452,
					1
				],
				"roughnessFactor":0.20000000298023224
			}
		},
		{
			"doubleSided":true,
			"name":"GOLD meterial.004",
			"pbrMetallicRoughness":{
				"baseColorFactor":[
					1,
					0.585842490196228,
					0.07388567179441452,
					1
				],
				"roughnessFactor":0.20000000298023224
			}
		},
		{
			"doubleSided":true,
			"name":"GOLD meterial.005",
			"pbrMetallicRoughness":{
				"baseColorFactor":[
					1,
					0.585842490196228,
					0.07388567179441452,
					1
				],
				"roughnessFactor":0.20000000298023224
			}
		},
		{
			"doubleSided":true,
			"name":"GOLD meterial.006",
			"pbrMetallicRoughness":{
				"baseColorFactor":[
					1,
					0.585842490196228,
					0.07388567179441452,
					1
				],
				"roughnessFactor":0.20000000298023224
			}
		},
		{
			"doubleSided":true,
			"name":"Matte Metallic Paint.002",
			"pbrMetallicRoughness":{}
		},
		{
			"doubleSided":true,
			"extensions":{
				"KHR_materials_unlit":{}
			},
			"name":"Material.001",
			"pbrMetallicRoughness":{
				"baseColorTexture":{
					"index":3
				},
				"metallicFactor":0,
				"roughnessFactor":0.9
			}
		}
	],
	"meshes":[
		{
			"name":"Circle",
			"primitives":[
				{
					"attributes":{
						"POSITION":0,
						"NORMAL":1,
						"TEXCOORD_0":2,
						"TEXCOORD_1":3
					},
					"indices":4,
					"material":0
				},
				{
					"attributes":{
						"POSITION":5,
						"NORMAL":6,
						"TEXCOORD_0":7,
						"TEXCOORD_1":8
					},
					"indices":9,
					"material":1
				},
				{
					"attributes":{
						"POSITION":10,
						"NORMAL":11,
						"TEXCOORD_0":12,
						"TEXCOORD_1":13
					},
					"indices":14,
					"material":2
				},
				{
					"attributes":{
						"POSITION":15,
						"NORMAL":16,
						"TEXCOORD_0":17,
						"TEXCOORD_1":18
					},
					"indices":14,
					"material":3
				},
				{
					"attributes":{
						"POSITION":19,
						"NORMAL":20,
						"TEXCOORD_0":21,
						"TEXCOORD_1":22
					},
					"indices":23,
					"material":4
				},
				{
					"attributes":{
						"POSITION":24,
						"NORMAL":25,
						"TEXCOORD_0":26,
						"TEXCOORD_1":27
					},
					"indices":28,
					"material":5
				},
				{
					"attributes":{
						"POSITION":29,
						"NORMAL":30,
						"TEXCOORD_0":31,
						"TEXCOORD_1":32
					},
					"indices":33,
					"material":6
				},
				{
					"attributes":{
						"POSITION":34,
						"NORMAL":35,
						"TEXCOORD_0":36,
						"TEXCOORD_1":37
					},
					"indices":38,
					"material":7
				},
				{
					"attributes":{
						"POSITION":39,
						"NORMAL":40,
						"TEXCOORD_0":41,
						"TEXCOORD_1":42
					},
					"indices":43,
					"material":8
				},
				{
					"attributes":{
						"POSITION":44,
						"NORMAL":45,
						"TEXCOORD_0":46,
						"TEXCOORD_1":47
					},
					"indices":48,
					"material":9
				}
			]
		},
		{
			"name":"Cube.001",
			"primitives":[
				{
					"attributes":{
						"POSITION":49,
						"NORMAL":50,
						"TEXCOORD_0":51
					},
					"indices":52,
					"material":10
				}
			]
		},
		{
			"name":"Plane",
			"primitives":[
				{
					"attributes":{
						"POSITION":53,
						"NORMAL":54,
						"TEXCOORD_0":55
					},
					"indices":56,
					"material":11
				}
			]
		},
		{
			"name":"H3XL3Y",
			"primitives":[
				{
					"attributes":{
						"POSITION":57,
						"NORMAL":58,
						"TEXCOORD_0":59
					},
					"indices":60,
					"material":1
				}
			]
		}
	],
	"textures":[
		{
			"sampler":0,
			"source":0
		},
		{
			"sampler":0,
			"source":1
		},
		{
			"sampler":0,
			"source":2
		},
		{
			"sampler":0,
			"source":3
		}
	],
	"images":[
		{
			"mimeType":"image/jpeg",
			"name":"DefaultMaterial_Normal",
			"uri":"DefaultMaterial_Normal.jpg"
		},
		{
			"mimeType":"image/jpeg",
			"name":"DefaultMaterial_BaseColor",
			"uri":"DefaultMaterial_BaseColor.jpg"
		},
		{
			"mimeType":"image/png",
			"name":"DefaultMaterial_Roughness",
			"uri":"DefaultMaterial_Roughness.png"
		},
		{
			"mimeType":"image/png",
			"name":"Untitled",
			"uri":"Untitled.png"
		}
	],
	"accessors":[
		{
			"bufferView":0,
			"componentType":5126,
			"count":36,
			"max":[
				3.19563364982605,
				0.08879999816417694,
				3.690000057220459
			],
			"min":[
				-3.19563364982605,
				0,
				-3.690000057220459
			],
			"type":"VEC3"
		},
		{
			"bufferView":1,
			"componentType":5126,
			"count":36,
			"type":"VEC3"
		},
		{
			"bufferView":2,
			"componentType":5126,
			"count":36,
			"type":"VEC2"
		},
		{
			"bufferView":3,
			"componentType":5126,
			"count":36,
			"type":"VEC2"
		},
		{
			"bufferView":4,
			"componentType":5123,
			"count":60,
			"type":"SCALAR"
		},
		{
			"bufferView":5,
			"componentType":5126,
			"count":5901,
			"max":[
				3.341310977935791,
				0.41210582852363586,
				3.832425117492676
			],
			"min":[
				-3.340850353240967,
				-0.32589390873908997,
				-3.835022211074829
			],
			"type":"VEC3"
		},
		{
			"bufferView":6,
			"componentType":5126,
			"count":5901,
			"type":"VEC3"
		},
		{
			"bufferView":7,
			"componentType":5126,
			"count":5901,
			"type":"VEC2"
		},
		{
			"bufferView":8,
			"componentType":5126,
			"count":5901,
			"type":"VEC2"
		},
		{
			"bufferView":9,
			"componentType":5123,
			"count":25296,
			"type":"SCALAR"
		},
		{
			"bufferView":10,
			"componentType":5126,
			"count":36,
			"max":[
				2.152414321899414,
				0.15782158076763153,
				2.48539400100708
			],
			"min":[
				-2.152414321899414,
				-0.04350947588682175,
				-2.48539400100708
			],
			"type":"VEC3"
		},
		{
			"bufferView":11,
			"componentType":5126,
			"count":36,
			"type":"VEC3"
		},
		{
			"bufferView":12,
			"componentType":5126,
			"count":36,
			"type":"VEC2"
		},
		{
			"bufferView":13,
			"componentType":5126,
			"count":36,
			"type":"VEC2"
		},
		{
			"bufferView":14,
			"componentType":5123,
			"count":84,
			"type":"SCALAR"
		},
		{
			"bufferView":15,
			"componentType":5126,
			"count":36,
			"max":[
				1.8980588912963867,
				0.1948588490486145,
				2.1739723682403564
			],
			"min":[
				-1.8980588912963867,
				-0.08159518241882324,
				-2.209407091140747
			],
			"type":"VEC3"
		},
		{
			"bufferView":16,
			"componentType":5126,
			"count":36,
			"type":"VEC3"
		},
		{
			"bufferView":17,
			"componentType":5126,
			"count":36,
			"type":"VEC2"
		},
		{
			"bufferView":18,
			"componentType":5126,
			"count":36,
			"type":"VEC2"
		},
		{
			"bufferView":19,
			"componentType":5126,
			"count":24,
			"max":[
				1.0601266622543335,
				0.20718245208263397,
				1.206411600112915
			],
			"min":[
				-1.0601266622543335,
				-0.10746640712022781,
				-1.2418463230133057
			],
			"type":"VEC3"
		},
		{
			"bufferView":20,
			"componentType":5126,
			"count":24,
			"type":"VEC3"
		},
		{
			"bufferView":21,
			"componentType":5126,
			"count":24,
			"type":"VEC2"
		},
		{
			"bufferView":22,
			"componentType":5126,
			"count":24,
			"type":"VEC2"
		},
		{
			"bufferView":23,
			"componentType":5123,
			"count":48,
			"type":"SCALAR"
		},
		{
			"bufferView":24,
			"componentType":5126,
			"count":273,
			"max":[
				0.026290178298950195,
				0.09398374706506729,
				-1.8473777770996094
			],
			"min":[
				-3.2113687992095947,
				-0.027573972940444946,
				-3.783735752105713
			],
			"type":"VEC3"
		},
		{
			"bufferView":25,
			"componentType":5126,
			"count":273,
			"type":"VEC3"
		},
		{
			"bufferView":26,
			"componentType":5126,
			"count":273,
			"type":"VEC2"
		},
		{
			"bufferView":27,
			"componentType":5126,
			"count":273,
			"type":"VEC2"
		},
		{
			"bufferView":28,
			"componentType":5123,
			"count":372,
			"type":"SCALAR"
		},
		{
			"bufferView":29,
			"componentType":5126,
			"count":248,
			"max":[
				3.2669925689697266,
				0.10943969339132309,
				1.7957488298416138
			],
			"min":[
				3.1676206588745117,
				-0.012118101119995117,
				-1.9009679555892944
			],
			"type":"VEC3"
		},
		{
			"bufferView":30,
			"componentType":5126,
			"count":248,
			"type":"VEC3"
		},
		{
			"bufferView":31,
			"componentType":5126,
			"count":248,
			"type":"VEC2"
		},
		{
			"bufferView":32,
			"componentType":5126,
			"count":248,
			"type":"VEC2"
		},
		{
			"bufferView":33,
			"componentType":5123,
			"count":372,
			"type":"SCALAR"
		},
		{
			"bufferView":34,
			"componentType":5126,
			"count":280,
			"max":[
				3.2585554122924805,
				0.09398399293422699,
				3.761880874633789
			],
			"min":[
				0.020896553993225098,
				-0.027573727071285248,
				1.8255228996276855
			],
			"type":"VEC3"
		},
		{
			"bufferView":35,
			"componentType":5126,
			"count":280,
			"type":"VEC3"
		},
		{
			"bufferView":36,
			"componentType":5126,
			"count":280,
			"type":"VEC2"
		},
		{
			"bufferView":37,
			"componentType":5126,
			"count":280,
			"type":"VEC2"
		},
		{
			"bufferView":38,
			"componentType":5123,
			"count":372,
			"type":"SCALAR"
		},
		{
			"bufferView":39,
			"componentType":5126,
			"count":274,
			"max":[
				-0.039812564849853516,
				0.09398390352725983,
				3.745269536972046
			],
			"min":[
				-3.2582757472991943,
				-0.02757364884018898,
				1.7754790782928467
			],
			"type":"VEC3"
		},
		{
			"bufferView":40,
			"componentType":5126,
			"count":274,
			"type":"VEC3"
		},
		{
			"bufferView":41,
			"componentType":5126,
			"count":274,
			"type":"VEC2"
		},
		{
			"bufferView":42,
			"componentType":5126,
			"count":274,
			"type":"VEC2"
		},
		{
			"bufferView":43,
			"componentType":5123,
			"count":372,
			"type":"SCALAR"
		},
		{
			"bufferView":44,
			"componentType":5126,
			"count":261,
			"max":[
				3.197793960571289,
				0.09398366510868073,
				-1.7974462509155273
			],
			"min":[
				-0.02066934108734131,
				-0.02757389098405838,
				-3.7672367095947266
			],
			"type":"VEC3"
		},
		{
			"bufferView":45,
			"componentType":5126,
			"count":261,
			"type":"VEC3"
		},
		{
			"bufferView":46,
			"componentType":5126,
			"count":261,
			"type":"VEC2"
		},
		{
			"bufferView":47,
			"componentType":5126,
			"count":261,
			"type":"VEC2"
		},
		{
			"bufferView":48,
			"componentType":5123,
			"count":372,
			"type":"SCALAR"
		},
		{
			"bufferView":49,
			"componentType":5126,
			"count":1128,
			"max":[
				1,
				1,
				1
			],
			"min":[
				-1,
				-1,
				-1
			],
			"type":"VEC3"
		},
		{
			"bufferView":50,
			"componentType":5126,
			"count":1128,
			"type":"VEC3"
		},
		{
			"bufferView":51,
			"componentType":5126,
			"count":1128,
			"type":"VEC2"
		},
		{
			"bufferView":52,
			"componentType":5123,
			"count":2244,
			"type":"SCALAR"
		},
		{
			"bufferView":53,
			"componentType":5126,
			"count":4,
			"max":[
				1,
				0,
				1
			],
			"min":[
				-1,
				0,
				-1
			],
			"type":"VEC3"
		},
		{
			"bufferView":54,
			"componentType":5126,
			"count":4,
			"type":"VEC3"
		},
		{
			"bufferView":55,
			"componentType":5126,
			"count":4,
			"type":"VEC2"
		},
		{
			"bufferView":56,
			"componentType":5123,
			"count":6,
			"type":"SCALAR"
		},
		{
			"bufferView":57,
			"componentType":5126,
			"count":1581,
			"max":[
				3.5310001373291016,
				0,
				0.009000000543892384
			],
			"min":[
				0.07500000298023224,
				0,
				-0.6910000443458557
			],
			"type":"VEC3"
		},
		{
			"bufferView":58,
			"componentType":5126,
			"count":1581,
			"type":"VEC3"
		},
		{
			"bufferView":59,
			"componentType":5126,
			"count":1581,
			"type":"VEC2"
		},
		{
			"bufferView":60,
			"componentType":5123,
			"count":4707,
			"type":"SCALAR"
		}
	],
	"bufferViews":[
		{
			"buffer":0,
			"byteLength":432,
			"byteOffset":0,
			"target":34962
		},
		{
			"buffer":0,
			"byteLength":432,
			"byteOffset":432,
			"target":34962
		},
		{
			"buffer":0,
			"byteLength":288,
			"byteOffset":864,
			"target":34962
		},
		{
			"buffer":0,
			"byteLength":288,
			"byteOffset":1152,
			"target":34962
		},
		{
			"buffer":0,
			"byteLength":120,
			"byteOffset":1440,
			"target":34963
		},
		{
			"buffer":0,
			"byteLength":70812,
			"byteOffset":1560,
			"target":34962
		},
		{
			"buffer":0,
			"byteLength":70812,
			"byteOffset":72372,
			"target":34962
		},
		{
			"buffer":0,
			"byteLength":47208,
			"byteOffset":143184,
			"target":34962
		},
		{
			"buffer":0,
			"byteLength":47208,
			"byteOffset":190392,
			"target":34962
		},
		{
			"buffer":0,
			"byteLength":50592,
			"byteOffset":237600,
			"target":34963
		},
		{
			"buffer":0,
			"byteLength":432,
			"byteOffset":288192,
			"target":34962
		},
		{
			"buffer":0,
			"byteLength":432,
			"byteOffset":288624,
			"target":34962
		},
		{
			"buffer":0,
			"byteLength":288,
			"byteOffset":289056,
			"target":34962
		},
		{
			"buffer":0,
			"byteLength":288,
			"byteOffset":289344,
			"target":34962
		},
		{
			"buffer":0,
			"byteLength":168,
			"byteOffset":289632,
			"target":34963
		},
		{
			"buffer":0,
			"byteLength":432,
			"byteOffset":289800,
			"target":34962
		},
		{
			"buffer":0,
			"byteLength":432,
			"byteOffset":290232,
			"target":34962
		},
		{
			"buffer":0,
			"byteLength":288,
			"byteOffset":290664,
			"target":34962
		},
		{
			"buffer":0,
			"byteLength":288,
			"byteOffset":290952,
			"target":34962
		},
		{
			"buffer":0,
			"byteLength":288,
			"byteOffset":291240,
			"target":34962
		},
		{
			"buffer":0,
			"byteLength":288,
			"byteOffset":291528,
			"target":34962
		},
		{
			"buffer":0,
			"byteLength":192,
			"byteOffset":291816,
			"target":34962
		},
		{
			"buffer":0,
			"byteLength":192,
			"byteOffset":292008,
			"target":34962
		},
		{
			"buffer":0,
			"byteLength":96,
			"byteOffset":292200,
			"target":34963
		},
		{
			"buffer":0,
			"byteLength":3276,
			"byteOffset":292296,
			"target":34962
		},
		{
			"buffer":0,
			"byteLength":3276,
			"byteOffset":295572,
			"target":34962
		},
		{
			"buffer":0,
			"byteLength":2184,
			"byteOffset":298848,
			"target":34962
		},
		{
			"buffer":0,
			"byteLength":2184,
			"byteOffset":301032,
			"target":34962
		},
		{
			"buffer":0,
			"byteLength":744,
			"byteOffset":303216,
			"target":34963
		},
		{
			"buffer":0,
			"byteLength":2976,
			"byteOffset":303960,
			"target":34962
		},
		{
			"buffer":0,
			"byteLength":2976,
			"byteOffset":306936,
			"target":34962
		},
		{
			"buffer":0,
			"byteLength":1984,
			"byteOffset":309912,
			"target":34962
		},
		{
			"buffer":0,
			"byteLength":1984,
			"byteOffset":311896,
			"target":34962
		},
		{
			"buffer":0,
			"byteLength":744,
			"byteOffset":313880,
			"target":34963
		},
		{
			"buffer":0,
			"byteLength":3360,
			"byteOffset":314624,
			"target":34962
		},
		{
			"buffer":0,
			"byteLength":3360,
			"byteOffset":317984,
			"target":34962
		},
		{
			"buffer":0,
			"byteLength":2240,
			"byteOffset":321344,
			"target":34962
		},
		{
			"buffer":0,
			"byteLength":2240,
			"byteOffset":323584,
			"target":34962
		},
		{
			"buffer":0,
			"byteLength":744,
			"byteOffset":325824,
			"target":34963
		},
		{
			"buffer":0,
			"byteLength":3288,
			"byteOffset":326568,
			"target":34962
		},
		{
			"buffer":0,
			"byteLength":3288,
			"byteOffset":329856,
			"target":34962
		},
		{
			"buffer":0,
			"byteLength":2192,
			"byteOffset":333144,
			"target":34962
		},
		{
			"buffer":0,
			"byteLength":2192,
			"byteOffset":335336,
			"target":34962
		},
		{
			"buffer":0,
			"byteLength":744,
			"byteOffset":337528,
			"target":34963
		},
		{
			"buffer":0,
			"byteLength":3132,
			"byteOffset":338272,
			"target":34962
		},
		{
			"buffer":0,
			"byteLength":3132,
			"byteOffset":341404,
			"target":34962
		},
		{
			"buffer":0,
			"byteLength":2088,
			"byteOffset":344536,
			"target":34962
		},
		{
			"buffer":0,
			"byteLength":2088,
			"byteOffset":346624,
			"target":34962
		},
		{
			"buffer":0,
			"byteLength":744,
			"byteOffset":348712,
			"target":34963
		},
		{
			"buffer":0,
			"byteLength":13536,
			"byteOffset":349456,
			"target":34962
		},
		{
			"buffer":0,
			"byteLength":13536,
			"byteOffset":362992,
			"target":34962
		},
		{
			"buffer":0,
			"byteLength":9024,
			"byteOffset":376528,
			"target":34962
		},
		{
			"buffer":0,
			"byteLength":4488,
			"byteOffset":385552,
			"target":34963
		},
		{
			"buffer":0,
			"byteLength":48,
			"byteOffset":390040,
			"target":34962
		},
		{
			"buffer":0,
			"byteLength":48,
			"byteOffset":390088,
			"target":34962
		},
		{
			"buffer":0,
			"byteLength":32,
			"byteOffset":390136,
			"target":34962
		},
		{
			"buffer":0,
			"byteLength":12,
			"byteOffset":390168,
			"target":34963
		},
		{
			"buffer":0,
			"byteLength":18972,
			"byteOffset":390180,
			"target":34962
		},
		{
			"buffer":0,
			"byteLength":18972,
			"byteOffset":409152,
			"target":34962
		},
		{
			"buffer":0,
			"byteLength":12648,
			"byteOffset":428124,
			"target":34962
		},
		{
			"buffer":0,
			"byteLength":9414,
			"byteOffset":440772,
			"target":34963
		}
	],
	"samplers":[
		{
			"magFilter":9729,
			"minFilter":9987
		}
	],
	"buffers":[
		{
			"byteLength":450188,
			"uri":"h3xCard.bin"
		}
	]
}
